<svg id="Layer_1" data-name="Layer 1" xmlns="http://www.w3.org/2000/svg" viewBox="0 0 531.03 531.03"><defs><style>.cls-1{font-size:60px;fill:#231f20;font-family:GlacialIndifference-Regular, Glacial Indifference;}</style></defs><text class="cls-1" transform="translate(264.57 49.13) rotate(5.91)">M</text><text class="cls-1" transform="translate(309.53 54.25) rotate(16.13)">o</text><text class="cls-1" transform="translate(340.05 63.44) rotate(22.75)">r</text><text class="cls-1" transform="translate(356.42 69.89) rotate(29.03)">n</text><text class="cls-1" transform="translate(382.08 84.55) rotate(34.67)">i</text><text class="cls-1" transform="translate(392.87 91.46) rotate(40.28)">n</text><text class="cls-1" transform="translate(415.29 110.14) rotate(48.52)">g</text><text class="cls-1" transform="translate(437.09 135.48) rotate(54.95)"> </text><text class="cls-1" transform="translate(446.02 148.06) rotate(59.38)">r</text><text class="cls-1" transform="translate(455.38 162.94) rotate(65.97)">o</text><text class="cls-1" transform="translate(468.27 191.82) rotate(74.11)">u</text><text class="cls-1" transform="translate(476.09 220.19) rotate(80.55)">t</text><text class="cls-1" transform="matrix(0.09, 1, -1, 0.09, 479.13, 238.95)">i</text><text class="cls-1" transform="translate(480.89 251.56) rotate(90.93)">n</text><text class="cls-1" transform="translate(480.72 280.89) rotate(98.36)">e</text><text class="cls-1" transform="matrix(-0.25, 0.97, -0.97, -0.25, 475.75, 312.09)"> </text><text class="cls-1" transform="translate(472.11 326.97) rotate(109.84)">-</text><text class="cls-1" transform="translate(463.93 349.2) rotate(115.06)"> </text><text class="cls-1" transform="matrix(-0.53, 0.85, -0.85, -0.53, 458.15, 363.16)">A</text><text class="cls-1" transform="translate(438.9 393.3) rotate(129.15)">f</text><text class="cls-1" transform="translate(426.56 408.5) rotate(134.23)">t</text><text class="cls-1" transform="translate(413.88 422.15) rotate(140.86)">e</text><text class="cls-1" transform="matrix(-0.84, 0.54, -0.54, -0.84, 389.17, 441.82)">r</text><text class="cls-1" transform="translate(374.55 451.63) rotate(153.65)">n</text><text class="cls-1" transform="translate(348.46 464.76) rotate(161.79)">o</text><text class="cls-1" transform="translate(318.49 474.73) rotate(170.24)">o</text><text class="cls-1" transform="translate(287.3 480.09) rotate(178.29)">n</text><text class="cls-1" transform="translate(257.81 480.66) rotate(-175.85)"> </text><text class="cls-1" transform="matrix(-0.99, -0.15, 0.15, -0.99, 242.4, 479.62)">r</text><text class="cls-1" transform="translate(224.94 477.47) rotate(-164.81)">o</text><text class="cls-1" transform="translate(194.43 469.2) rotate(-156.67)">u</text><text class="cls-1" transform="matrix(-0.87, -0.5, 0.5, -0.87, 167.5, 457.32)">t</text><text class="cls-1" transform="translate(151.05 447.83) rotate(-146)">i</text><text class="cls-1" transform="matrix(-0.77, -0.64, 0.64, -0.77, 140.19, 441.05)">n</text><text class="cls-1" transform="translate(117.58 422.56) rotate(-132.38)">e</text><text class="cls-1" transform="translate(96.55 398.93) rotate(-126.18)"> </text><text class="cls-1" transform="translate(87.32 386.71) rotate(-121)">-</text><text class="cls-1" transform="translate(75.24 366.32) rotate(-115.8)"> </text><text class="cls-1" transform="matrix(-0.33, -0.94, 0.94, -0.33, 68.18, 352.91)">E</text><text class="cls-1" transform="translate(57.68 322.72) rotate(-101.94)">v</text><text class="cls-1" transform="translate(52.36 299.05) rotate(-94.53)">e</text><text class="cls-1" transform="matrix(0.06, -1, 1, 0.06, 49.87, 267.78)">n</text><text class="cls-1" transform="translate(51.99 238.29) rotate(-80.97)">i</text><text class="cls-1" transform="matrix(0.25, -0.97, 0.97, 0.25, 53.53, 225.6)">n</text><text class="cls-1" transform="translate(60.69 197.33) rotate(-66.97)">g</text><text class="cls-1" transform="matrix(0.49, -0.87, 0.87, 0.49, 74.19, 166.74)"> </text><text class="cls-1" transform="matrix(0.56, -0.83, 0.83, 0.56, 81.72, 153.28)">r</text><text class="cls-1" transform="translate(91.15 138.43) rotate(-49.5)">o</text><text class="cls-1" transform="translate(111.68 114.37) rotate(-41.47)">u</text><text class="cls-1" transform="translate(133.9 95.06) rotate(-35.1)">t</text><text class="cls-1" transform="matrix(0.86, -0.51, 0.51, 0.86, 149.49, 84.2)">i</text><text class="cls-1" transform="translate(160.26 77.24) rotate(-25.19)">n</text><text class="cls-1" transform="translate(186.59 64.66) rotate(-17.09)">e</text><text class="cls-1" transform="matrix(0.98, -0.19, 0.19, 0.98, 216.92, 55.75)"> </text><text class="cls-1" transform="matrix(1, -0.1, 0.1, 1, 231.92, 52.65)">-</text></svg>